<svg width="1200" height="630" viewBox="0 0 1200 630" fill="none" xmlns="http://www.w3.org/2000/svg">
  <defs>
    <radialGradient id="bg" cx="0" cy="0" r="1" gradientUnits="userSpaceOnUse" gradientTransform="translate(600 315) rotate(90) scale(350 600)">
      <stop offset="0" stop-color="#211E45" />
      <stop offset="1" stop-color="#090A16" />
    </radialGradient>
    <linearGradient id="ribbonA" x1="0" y1="0" x2="1" y2="1">
      <stop offset="0" stop-color="#A78BFA" />
      <stop offset="0.5" stop-color="#8B5CF6" />
      <stop offset="1" stop-color="#6366F1" />
    </linearGradient>
    <linearGradient id="ribbonB" x1="1" y1="0" x2="0" y2="1">
      <stop offset="0" stop-color="#F472B6" />
      <stop offset="0.5" stop-color="#E879F9" />
      <stop offset="1" stop-color="#A78BFA" />
    </linearGradient>
    <filter id="shadow" x="-20%" y="-20%" width="140%" height="140%">
      <feDropShadow dx="0" dy="12" stdDeviation="14" flood-color="#05060F" flood-opacity="0.55" />
    </filter>
  </defs>

  <rect width="1200" height="630" fill="url(#bg)" />
  <rect x="24" y="24" width="1152" height="582" rx="38" stroke="#A78BFA" stroke-opacity="0.2" />

  <g transform="translate(140 150)">
    <rect x="0" y="0" width="330" height="330" rx="64" fill="#0C0E1D" />
    <rect x="14" y="14" width="302" height="302" rx="52" stroke="#A78BFA" stroke-opacity="0.2" />
    <g filter="url(#shadow)">
      <path d="M54 111C54 89 72 71 94 71H130L243 184V220C243 242 225 260 203 260H167L54 147V111Z" fill="url(#ribbonA)" />
      <path d="M243 111C243 89 225 71 203 71H167L54 184V220C54 242 72 260 94 260H130L243 147V111Z" fill="url(#ribbonB)" />
    </g>
  </g>

  <g transform="translate(520 215)">
    <text x="0" y="84" fill="white" font-size="84" font-family="Inter, Segoe UI, Arial, sans-serif" font-weight="700">jikjo</text>
    <text x="0" y="152" fill="#A3A3B6" font-size="40" font-family="Inter, Segoe UI, Arial, sans-serif" font-weight="500">
      Rich text editor playground
    </text>
    <text x="0" y="208" fill="#8B5CF6" font-size="30" font-family="Inter, Segoe UI, Arial, sans-serif" font-weight="600">
      Lexical-powered · Headless · Extensible
    </text>
  </g>
</svg>
